# xmcd
#
# Track frame offsets:
#	182
#	10422
#	35010
#	48755
#	62672
#	80265
#	99297
#	114027
#	126195
#	137792
#
# Disc length: 2060 seconds
#
# Revision: 0
# Processed by: cddbd v1.5.2PL0 Copyright (c) Steve Scherf et al.
# Submitted via: dBpowerAMP V4.0
#
DISCID=76080a0a
DTITLE=The Road Kings - Live At The Satellite Lounuge
DYEAR=1997
DGENRE=Rock and Roll
TTITLE0=Lonestar Hoedown
TTITLE1=Should'a Could'a Would'a
TTITLE2=Crazy Love
TTITLE3=Walk On By
TTITLE4=Her Love Rubbed Off
TTITLE5=Ranch Road 2222
TTITLE6=Hot Headed Gal
TTITLE7=Casting My Spell
TTITLE8=Cracker Jack
TTITLE9=Long Hard Look
EXTD=
EXTT0=
EXTT1=
EXTT2=
EXTT3=
EXTT4=
EXTT5=
EXTT6=
EXTT7=
EXTT8=
EXTT9=
PLAYORDER=
